<?xml version="1.0" encoding="UTF-8"?>
<svg width="163.14mm" height="163.58mm" version="1.1" viewBox="0 0 163.13985 163.57881" xmlns="http://www.w3.org/2000/svg" xmlns:cc="http://creativecommons.org/ns#" xmlns:dc="http://purl.org/dc/elements/1.1/" xmlns:rdf="http://www.w3.org/1999/02/22-rdf-syntax-ns#">
<metadata>
<rdf:RDF>
<cc:Work rdf:about="">
<dc:format>image/svg+xml</dc:format>
<dc:type rdf:resource="http://purl.org/dc/dcmitype/StillImage"/>
<dc:title/>
</cc:Work>
</rdf:RDF>
</metadata>
<g transform="translate(0 -153.42)">
<path style="fill:#ef3d3d;fill-opacity:0.05;" d="m65.168 296.91c-0.15522-0.0537-1.1712-0.18996-2.2578-0.30276l-1.9756-0.20509 1.8344-0.47267c2.1222-0.54679 2.1733-0.51815-2.7562-1.5437-4.1706-0.86767-4.6306-0.88122-5.2872-0.15575-0.28095 0.31044-0.78766 0.56444-1.126 0.56444-1.5325 0-6.6041-2.1245-8.472-3.549-0.98337-0.74991-4.7159-2.547-5.8536-2.8183-0.85681-0.20433-1.1042 0.29303-0.28222 0.56731 0.27164 0.0906 0.81139 0.4292 1.1994 0.75238 0.86205 0.71791-3.0437-1.3232-5.8551-3.0597-1.1248-0.69478-1.9713-1.3827-1.8811-1.5287 0.0902-0.14598-0.8982-1.4349-2.1965-2.8642-3.5459-3.9038-4.6248-5.2839-7.4139-9.4835l-2.5501-3.8397-3.3867-1.756c-3.4387-1.783-3.8144-1.937-3.8043-1.5601 0.0101 0.37571 3.5245 5.1288 5.7583 7.7877l2.1707 2.584-2.3938-2.4596c-1.3166-1.3528-3.4098-3.8232-4.6516-5.4897-2.2482-3.0171-3.064-4.4619-5.5511-9.8307-0.71907-1.5522-1.6153-3.2265-1.9917-3.7206-0.37637-0.49411-0.68432-1.2583-0.68432-1.6982 0-0.43991-0.42869-2.2581-0.95265-4.0405s-1.2937-4.7627-1.7105-6.623c-0.45709-2.04-1.0759-3.9441-1.5593-4.7978-1.3029-2.3011-1.5527-4.113-1.5373-11.152 0.0134-6.145 0.26321-9.3596 1.1184-14.393 0.61093-3.5959 0.91772-4.5156 1.5064-4.5156 0.88112 0 1.3942-0.91126 2.95-5.2397 2.3969-6.6685 4.9157-11.905 8.4853-17.641 0.71234-1.1447 1.2952-2.1709 1.2952-2.2805 0-0.10963-0.27941-0.23992-0.62091-0.28952-0.56119-0.0815-0.45672-0.28022 1.086-2.0657 2.5518-2.9535 10.122-10.218 12.556-12.05 6.3114-4.7489 16.844-9.8339 25.232-12.182 3.7153-1.0399 7.1766-1.5899 10.995-1.747 3.4726-0.14297 3.7289 0.0989 0.69741 0.65815-1.9342 0.35683-6.3236 1.9698-9.8696 3.6267-3.3571 1.5686-7.0931 3.8011-6.9715 4.1659 0.0506 0.15184 3.4497 0.79638 7.5534 1.4323l7.4614 1.1563 2.9945-2.7324c3.5595-3.2481 5.9966-5.0847 8.2758-6.2367 2.0904-1.0566 1.8202-1.2639-1.9872-1.5242-6.3653-0.43521-4.0773-1.0946 3.1119-0.89686 4.9103 0.13508 6.9417 0.51306 4.858 0.90396-0.56383 0.10578-1.0252 0.30292-1.0252 0.43811 0 0.2862 5.8391 1.7042 7.0177 1.7042 0.43901 0 1.0911-0.254 1.449-0.56445 0.79051-0.68561 0.55973-0.6862 3.0646 8e-3 2.2182 0.61469 4.4582 1.651 5.8326 2.6984 1.1288 0.8602 4.2561 2.3115 5.4961 2.5506l0.98778 0.19048-0.70556-0.59766c-1.325-1.1224-0.1044-0.61782 3.5473 1.4664 2.2722 1.2968 3.7786 2.3417 3.9919 2.7688 0.18841 0.37728 1.1251 1.5672 2.0816 2.6444 2.9208 3.2893 4.6067 5.4761 6.986 9.0613 1.2534 1.8887 2.707 3.7605 3.2301 4.1595 0.96653 0.73721 6.1549 3.272 6.6973 3.272 0.20253 0 0.19761-0.18526-0.0155-0.58348-0.43151-0.80629-5.4656-7.0337-7.6273-9.4354l-1.7782-1.9756 1.7694 1.6933c3.9777 3.8067 8.815 9.8686 9.9393 12.456 0.32829 0.75536 0.8322 1.6318 1.1198 1.9478 0.55524 0.60992 3.313 7.3871 4.7148 11.587 0.46165 1.383 1.3153 4.2925 1.8971 6.4656 0.58173 2.1731 1.478 4.8401 1.9916 5.9267 1.1551 2.4435 1.4825 4.3938 1.7053 10.16 0.25656 6.6402-0.63134 16.566-1.6789 18.768-0.1846 0.38806-0.61908 0.74599-0.96551 0.79542-0.88928 0.12686-1.3936 0.96892-2.2281 3.7201-1.7002 5.6053-5.1165 13.169-8.3753 18.544-1.9354 3.1918-2.0858 3.6334-1.3071 3.8371 0.52192 0.13648 0.55264 0.23428 0.2548 0.81109-0.49815 0.96477-11.687 12.038-13.738 13.596-7.7368 5.8776-22.093 12.123-31.239 13.59-2.5763 0.41323-6.5537 0.61711-6.8211 0.34964-0.0789-0.0789 0.84681-0.49743 2.0572-0.93002 8.0255-2.8683 15.601-6.7595 15.251-7.8338-0.0604-0.18526-0.98933-0.4442-2.0643-0.57544-1.075-0.13123-4.4945-0.65128-7.5989-1.1557l-5.6444-0.91707-3.5278 3.4227c-1.9403 1.8825-4.3533 3.9496-5.3622 4.5935-1.009 0.6439-2.1407 1.3913-2.515 1.661-0.67435 0.48583-0.67516 0.49223-0.0893 0.70896 0.32518 0.12029 1.624 0.36012 2.8864 0.53296 4.5066 0.61703 3.8559 1.0691-1.5521 1.0785-1.8627 3e-3 -3.5137-0.0381-3.6689-0.0918zm-10.406-6.5193c0.89592-2.4827 2.237-9.6639 1.8727-10.028-0.27898-0.27897-17.227-5.2039-18.52-5.3816-0.53067-0.073-0.59281 0.0344-0.50957 0.88031 0.22385 2.275 3.3802 9.7764 5.0826 12.079 0.48355 0.6541 1.1964 1.3971 1.5842 1.6512 1.1558 0.7573 8.6617 2.9109 9.3149 2.6726 0.36922-0.13466 0.7893-0.80443 1.1751-1.8736zm52.312-3.6645c2.4341-1.3248 7.2749-5.1582 10.782-8.5382 3.3932-3.2702 8.4131-8.8052 8.4131-9.2766 0-0.13559-2.3354-0.53446-5.1898-0.88636-6.3602-0.78413-6.5447-0.73889-8.5634 2.0999-4.0118 5.6415-8.9314 11.107-13.622 15.134-1.0089 0.86618-1.7329 1.6789-1.6088 1.806 0.31162 0.31929 4.4748 0.64242 6.6338 0.51487 1.2426-0.0734 2.1945-0.33104 3.1554-0.85401zm-27.149-4.2789c3.0965-4.1988 6.8861-10.474 9.8738-16.351 0.88275-1.7363 1.5416-3.2203 1.4641-3.2978-0.249-0.24899-25.204-6.0162-26.659-6.161l-0.84666-0.0842-1.054 4.0922c-1.6627 6.4552-4.2109 18.035-4.114 18.694 0.0568 0.38699 0.38851 0.68656 0.93473 0.84419 1.765 0.50937 17.808 4.1278 18.388 4.1475 0.4355 0.0148 1.0074-0.52048 2.0132-1.8844zm-43.692-9.3133c-4e-3 -0.42687-0.12275-1.2841-0.26435-1.905-0.40566-1.7787-0.82018-7.2783-1.148-15.23-0.16614-4.0305-0.33066-7.3568-0.36561-7.3918-0.12011-0.1201-15.015-4.5872-17.617-5.2838-1.4323-0.38331-2.6578-0.61016-2.7233-0.50412-0.19897 0.32195 0.89652 7.3172 1.6868 10.771 1.0112 4.4195 2.4701 8.8953 4.0017 12.277 0.70305 1.5522 1.3067 2.8584 1.3415 2.9026 0.0824 0.10478 14.607 5.1071 14.884 5.1262 0.11642 8e-3 0.20857-0.33466 0.20477-0.76152zm78.422-7.6498c1.5332-1.6513 4.7321-8.0922 7.2389-14.575 1.3617-3.5217 3.5283-10.076 3.5283-10.674 0-0.86937-1.1772-1.8545-2.896-2.4236-1.3384-0.44312-14.909-3.7401-19.31-4.6912-0.41926-0.0906-0.66253 0.0247-0.7622 0.36135-2.3331 7.88-4.2438 13.824-5.8474 18.19-3.7388 10.18-3.7933 10.345-3.4985 10.636 0.34303 0.33819 18.187 3.9198 19.712 3.9566 0.85135 0.0206 1.248-0.14803 1.8344-0.77967zm-51.517-12.035c0.91338-2.4559 6.0662-23.223 6.8347-27.546l0.18075-1.0166-3.203-0.88137c-5.7693-1.5875-25.414-6.2576-26.323-6.2576-0.84373 0-4.1155 18.764-4.8303 27.702l-0.19539 2.4432 0.82362 0.42591c1.7615 0.91091 24.034 6.7193 25.348 6.6105 0.72804-0.0603 0.90928-0.25697 1.3644-1.4806zm-50.05-18.633c0.39895-8.4368 0.95407-13.944 1.9409-19.256l0.79979-4.3052-1.0129-0.26817c-3.5341-0.93565-7.4862-1.761-9.1054-1.9016l-1.8836-0.16357-0.28431 1.0975c-0.87432 3.3749-1.4513 10.897-1.4481 18.877 3e-3 7.0782 0.10896 7.9188 1.0799 8.557 0.68624 0.45109 9.4284 4.026 9.5494 3.905 0.0317-0.0317 0.19567-2.9757 0.36432-6.5421zm125.59 5.7944c1.2423-0.66488 1.9625-5.8696 2.1676-15.666 0.18021-8.6085-0.0564-11.376-1.0641-12.449-0.6077-0.64687-6.3877-3.0764-8.9715-3.7711-1.0014-0.26923-1.2856-0.2613-1.4773 0.0412-0.13061 0.206-0.24071 3.0416-0.24469 6.3012-8e-3 6.8642-0.31521 10.956-1.2833 17.111-0.88344 5.6177-0.88227 5.8322 0.0335 6.1803 1.1117 0.42267 9.2228 2.508 9.8041 2.5206 0.28185 6e-3 0.74793-0.11491 1.0357-0.26894zm-36.635-10.647c1.4205-4.1242 4.1844-22.086 4.1812-27.173l-1e-3 -1.8344-9.5909-2.4837c-12.488-3.234-17.182-4.2968-17.513-3.9658-0.4956 0.4956-6.1643 24.159-6.8986 28.797l-0.18697 1.181 1.9267 0.57227c1.0597 0.31475 6.2447 1.6454 11.522 2.957 17.281 4.2948 15.812 4.1219 16.56 1.9491zm-62.588-14.261c0.40587-0.62735 1.2654-3.1109 4.1266-11.924 0.80631-2.4836 2.4677-7.0781 3.6919-10.21 1.2242-3.1321 2.2259-5.8259 2.2259-5.9864 0-0.35122-1.0641-0.64982-5.6697-1.5911-6.5965-1.3481-12.752-2.3913-14.11-2.3913-1.2015 0-1.4385 0.10584-2.054 0.91722-1.0689 1.4092-4.0991 7.4856-6.1693 12.371-1.6839 3.9739-4.7348 12.808-4.7348 13.71 0 0.4496 0.99735 0.73722 11.007 3.1742 8.0777 1.9667 10.288 2.4794 10.93 2.5354 0.19045 0.0166 0.53115-0.25552 0.7571-0.60477zm88.697-9.4217c0.25441-0.66298-0.90273-7.3968-2.0674-12.031-1.1448-4.555-2.2482-7.8101-3.7473-11.055l-1.0523-2.2777-7.3177-2.4696c-4.0247-1.3583-7.4273-2.4692-7.5612-2.4687s-0.18034 0.85818-0.10312 1.9059c0.0772 1.0478 0.28504 3.8735 0.46182 6.2794 0.17678 2.406 0.41369 7.1608 0.52645 10.566l0.20503 6.1918 5.9267 1.7983c14.58 4.4239 14.413 4.3836 14.729 3.5603zm-50.214-13.721c0.15709-0.19403 0.68705-1.6126 1.1777-3.1523 1.0851-3.4054 4.8147-17.894 4.8147-18.704 0-0.31978-0.17586-0.72738-0.39081-0.90577-0.21494-0.17839-4.6774-1.266-9.9165-2.4169l-9.5257-2.0925-0.53691 0.61843c-0.2953 0.34013-1.8476 2.5869-3.4496 4.9929-4.268 6.4098-8.9182 14.564-8.9182 15.637 0 0.51734-0.4868 0.38007 9.0311 2.5465 4.4238 1.0069 9.8848 2.2712 12.136 2.8095 4.5967 1.0994 5.1731 1.1683 5.5787 0.66727zm-49.883-10.533c0.31323-0.089 1.6324-1.5812 2.9314-3.3161 1.299-1.7349 3.7557-4.6784 5.4592-6.541 2.6701-2.9196 4.1781-4.34 9.2432-8.7067l0.84666-0.72993-4.873-9e-3 -4.873-9e-3 -3.2109 2.3283c-1.766 1.2806-4.6589 3.6205-6.4286 5.1999-4.1953 3.744-10.847 10.774-10.345 10.935 0.31031 0.0991 4.8879 0.67225 8.846 1.1077 0.85139 0.0937 1.3524 0.0397 2.404-0.25895zm76.569-8.2344c-0.25627-1.7473-1.6864-5.8084-2.974-8.4452-1.5508-3.1758-3.1786-4.8873-5.4431-5.7229-2.1262-0.78461-6.5808-1.9875-7.3637-1.9884-0.68248-8.2e-4 -0.65385-0.0814-2.4798 6.9799l-1.2577 4.864 1.035 0.30048c6.9076 2.0053 17.791 5.03 18.162 5.0477 0.39199 0.0187 0.44871-0.16434 0.32092-1.0356z" stroke-width=".28222"/>
</g>
</svg>